<?xml version="1.0" encoding="utf-8"?>
<!-- Generator: Adobe Illustrator 25.4.1, SVG Export Plug-In . SVG Version: 6.00 Build 0)  -->
<svg version="1.1" id="Layer_1" xmlns="http://www.w3.org/2000/svg" xmlns:xlink="http://www.w3.org/1999/xlink" x="0px" y="0px"
	 viewBox="0 0 1920 1080" style="enable-background:new 0 0 1920 1080;" xml:space="preserve">
<style type="text/css">
	.st0{opacity:0.7;clip-path:url(#SVGID_00000061438553808782550340000018438476763045546132_);}
	.st1{fill:url(#SVGID_00000085232356186422829200000005889514650031710634_);}
	.st2{fill:url(#SVGID_00000129182687296707686940000012436010478075937708_);}
	.st3{fill:url(#SVGID_00000055698683181571215480000001809214580862250145_);}
	.st4{fill:url(#SVGID_00000116927915692602718050000009337056399533195688_);}
</style>
<g>
	<defs>
		<rect id="SVGID_1_" width="1920" height="1080"/>
	</defs>
	<clipPath id="SVGID_00000159430581426282218790000002178642950003640242_">
		<use xlink:href="#SVGID_1_"  style="overflow:visible;"/>
	</clipPath>
	<g style="opacity:0.7;clip-path:url(#SVGID_00000159430581426282218790000002178642950003640242_);">
		
			<radialGradient id="SVGID_00000014600679192911411090000009366828829610667690_" cx="276.8887" cy="923.8391" r="1" gradientTransform="matrix(8.582325e-14 1401.6 1720.8 -1.053686e-13 -1588275.875 -387693.5938)" gradientUnits="userSpaceOnUse">
			<stop  offset="0" style="stop-color:#107C10"/>
			<stop  offset="1" style="stop-color:#C4C4C4;stop-opacity:0"/>
		</radialGradient>
		<path style="fill:url(#SVGID_00000014600679192911411090000009366828829610667690_);" d="M1466.4,1795.2
			c950.4,0,1720.8-627.5,1720.8-1401.6c0-774.1-770.4-1401.6-1720.8-1401.6C516-1008-254.4-380.5-254.4,393.6
			C-254.4,1167.7,516,1795.2,1466.4,1795.2z"/>
		
			<radialGradient id="SVGID_00000061432109002379588340000016157317066080198591_" cx="276.8584" cy="923.7951" r="1" gradientTransform="matrix(6.745355e-14 1101.6 1351.8 -8.277388e-14 -1248392 -304273.1875)" gradientUnits="userSpaceOnUse">
			<stop  offset="0" style="stop-color:#0078D4"/>
			<stop  offset="1" style="stop-color:#C4C4C4;stop-opacity:0"/>
		</radialGradient>
		<path style="fill:url(#SVGID_00000061432109002379588340000016157317066080198591_);" d="M394.2,1815.6
			c746.6,0,1351.8-493.2,1351.8-1101.6c0-608.4-605.2-1101.6-1351.8-1101.6C-352.4-387.6-957.6,105.6-957.6,714
			C-957.6,1322.4-352.4,1815.6,394.2,1815.6z"/>
		
			<radialGradient id="SVGID_00000151524679878182676410000005629210538845830047_" cx="276.8327" cy="923.7579" r="1" gradientTransform="matrix(5.709304e-14 932.4 1144.2 -7.006205e-14 -1055415.125 -257166)" gradientUnits="userSpaceOnUse">
			<stop  offset="0" style="stop-color:#FFB900;stop-opacity:0.75"/>
			<stop  offset="1" style="stop-color:#C4C4C4;stop-opacity:0"/>
		</radialGradient>
		<path style="fill:url(#SVGID_00000151524679878182676410000005629210538845830047_);" d="M1548.6,1885.2
			c631.9,0,1144.2-417.4,1144.2-932.4S2180.5,20.4,1548.6,20.4c-631.9,0-1144.2,417.5-1144.2,932.4S916.7,1885.2,1548.6,1885.2z"/>
		
			<radialGradient id="SVGID_00000174567076403091514620000011718890084779310471_" cx="276.8467" cy="923.7784" r="1" gradientTransform="matrix(6.231003e-14 1017.6 1249.8 -7.652819e-14 -1154272.5 -281521.1875)" gradientUnits="userSpaceOnUse">
			<stop  offset="0" style="stop-color:#D83B01;stop-opacity:0.75"/>
			<stop  offset="1" style="stop-color:#C4C4C4;stop-opacity:0"/>
		</radialGradient>
		<path style="fill:url(#SVGID_00000174567076403091514620000011718890084779310471_);" d="M265.8,1215.6
			C956,1215.6,1515.6,760,1515.6,198S956-819.6,265.8-819.6C-424.4-819.6-984-364-984,198S-424.4,1215.6,265.8,1215.6z"/>
	</g>
</g>
</svg>
